<?xml version="1.0" encoding="UTF-8" standalone="no"?>
<svg
   xmlns:dc="http://purl.org/dc/elements/1.1/"
   xmlns:cc="http://creativecommons.org/ns#"
   xmlns:rdf="http://www.w3.org/1999/02/22-rdf-syntax-ns#"
   xmlns:svg="http://www.w3.org/2000/svg"
   xmlns="http://www.w3.org/2000/svg"
   xmlns:sodipodi="http://sodipodi.sourceforge.net/DTD/sodipodi-0.dtd"
   xmlns:inkscape="http://www.inkscape.org/namespaces/inkscape"
   id="svg8"
   version="1.1"
   viewBox="0 0 210 297"
   height="297mm"
   width="210mm"
   sodipodi:docname="mlcLOGOv1.svg"
   inkscape:version="1.0.2 (e86c8708, 2021-01-15)">
  <defs
     id="defs2">
    <inkscape:path-effect
       effect="perspective-envelope"
       up_left_point="43.742396,126.61918"
       up_right_point="70.002168,123.14163"
       down_left_point="36.787304,158.59023"
       down_right_point="70.002168,158.59023"
       id="path-effect1066"
       is_visible="true"
       lpeversion="1"
       deform_type="perspective"
       horizontal_mirror="false"
       vertical_mirror="false"
       overflow_perspective="false" />
    <inkscape:path-effect
       effect="perspective-envelope"
       up_left_point="35.549809,133.19426"
       up_right_point="61.242054,134.59486"
       down_left_point="35.549809,167.83173"
       down_right_point="61.242054,166.43112"
       id="path-effect1045"
       is_visible="true"
       lpeversion="1"
       deform_type="perspective"
       horizontal_mirror="true"
       vertical_mirror="false"
       overflow_perspective="false" />
    <inkscape:path-effect
       effect="perspective-envelope"
       up_left_point="131.14853,125.15755"
       up_right_point="156.80131,126.60653"
       down_left_point="131.14853,159.79502"
       down_right_point="156.88024,158.44279"
       id="path-effect1022"
       is_visible="true"
       lpeversion="1"
       deform_type="perspective"
       horizontal_mirror="true"
       vertical_mirror="false"
       overflow_perspective="false" />
    <inkscape:path-effect
       effect="perspective-envelope"
       up_left_point="82.459785,96.346256"
       up_right_point="119.37622,95.555104"
       down_left_point="82.459785,118.11798"
       down_right_point="119.37622,118.61028"
       id="path-effect1020"
       is_visible="true"
       lpeversion="1"
       deform_type="perspective"
       horizontal_mirror="true"
       vertical_mirror="false"
       overflow_perspective="false" />
  </defs>
  <sodipodi:namedview
     id="base"
     pagecolor="#ffffff"
     bordercolor="#666666"
     borderopacity="1.0"
     inkscape:pageopacity="0.0"
     inkscape:pageshadow="2"
     inkscape:zoom="0.91300015"
     inkscape:cx="354.114"
     inkscape:cy="536.80299"
     inkscape:document-units="mm"
     inkscape:current-layer="layer1"
     inkscape:document-rotation="0"
     showgrid="false"
     inkscape:window-width="1252"
     inkscape:window-height="985"
     inkscape:window-x="277"
     inkscape:window-y="160"
     inkscape:window-maximized="0"
     inkscape:snap-nodes="false" />
  <metadata
     id="metadata5">
    <rdf:RDF>
      <cc:Work
         rdf:about="">
        <dc:format>image/svg+xml</dc:format>
        <dc:type
           rdf:resource="http://purl.org/dc/dcmitype/StillImage" />
        <dc:title></dc:title>
      </cc:Work>
    </rdf:RDF>
  </metadata>
  <g
     inkscape:label="Layer 1"
     inkscape:groupmode="layer"
     id="layer1">
    <g
       id="g5318"
       transform="matrix(0.20630511,0.00705532,-0.00705532,0.20630511,125.50023,28.152284)"
       style="stroke-width:1.36719">
      <ellipse
         id="circle4657"
         cy="636.64795"
         cx="-107.1429"
         style="fill:#272727;fill-opacity:1;stroke-width:1.36719"
         rx="249.99994"
         ry="250" />
      <path
         id="path4659"
         d="m 142.85704,636.64796 c 0,-50.15918 -14.76953,-96.86621 -40.20019,-136.01074 0,0 -14.261714,20.83398 -11.582027,34.22558 2.677734,13.39356 18.413077,14.41602 16.796867,24.24024 -1.61621,9.82422 -13.223625,-2.81153 -27.511708,23.0791 -14.287106,25.89258 -7.140623,61.61719 13.392575,64.29102 20.534173,2.67187 49.104483,-9.8252 49.104483,-9.8252 z"
         style="fill:#5e5e5e;fill-opacity:1;stroke-width:1.36719" />
      <path
         id="path4661"
         d="m -41.488621,395.3589 c 29.098626,7.89843 56.087877,20.92187 79.938457,38.03808 0,0 -28.9882739,-4.78125 -39.9697165,5.03711 -10.9804665,9.82129 -26.9951105,33.03907 -39.9697165,0 -12.972653,-33.03711 9.76e-4,-43.07519 9.76e-4,-43.07519 z"
         style="fill:#5e5e5e;fill-opacity:1;stroke-width:1.36719" />
      <path
         id="path4663"
         d="m -295.11258,471.82276 c 45.81835,-52.21191 113.04294,-85.1748 187.96968,-85.1748 0,0 -16.96093,10.26953 15.181635,27.67969 32.143547,17.41211 17.410152,25.44629 10.713865,30.80371 -6.695311,5.35742 -18.309566,-10.71387 -25.8955,-21.42676 -7.58691,-10.71582 -40.16796,-27.23144 -65.16991,-18.30078 -25.00097,8.93066 -46.42479,15.52734 -42.85643,23.83594 3.56738,8.30664 46.42479,-7.75879 62.49608,-6.87012 16.07128,0.89062 10.71386,10.70996 -4.46192,22.31836 -15.17773,11.6084 -16.96679,25.89258 -0.89453,34.82031 16.07031,8.93164 35.70898,9.8252 40.1787,4.46875 4.4668,-5.35742 -8.03613,-40.17871 22.322264,-25.00195 30.35839,15.17676 55.359361,24.1123 30.35839,46.43066 -25.001946,22.31641 -53.571274,47.3252 -54.465804,61.60547 -0.89453,14.28223 8.93164,25.89844 3.57422,26.78711 -5.35743,0.88867 -10.27442,-5.80176 -13.84375,-10.71582 -3.56738,-4.91113 -20.08886,-6.69434 -28.12402,-3.57227 -8.03613,3.12207 -23.21679,15.17676 -14.73242,26.78516 8.48535,11.61035 20.08301,6.24609 31.69336,11.60449 11.60839,5.35742 22.43358,25.74707 20.21093,30.35547 -2.22266,4.60645 -12.11816,-1.22656 -20.21093,-16.96191 -8.09473,-15.73731 -23.27637,-5.35742 -33.958,-8.03614 -10.68262,-2.67773 -18.71875,-4.46289 -29.43359,-23.21386 -10.71484,-18.74903 -32.89745,-23.9961 -41.9619,-34.82031 -25.96582,-31.00586 -24.1084,-54.46387 -29.46484,-65.17774 -5.35742,-10.7168 -19.22558,-28.22266 -19.22558,-28.22266 z"
         style="fill:#5e5e5e;fill-opacity:1;stroke-width:1.36719" />
      <path
         id="path4665"
         d="m -83.036462,640.22023 c 0,0 26.786126,2.67382 40.178701,14.28418 13.392575,11.60839 15.181637,16.07519 35.7158115,20.53808 20.5341745,4.46094 29.4648365,16.06543 16.0712852,38.38965 -13.3925749,22.32129 -37.5038967,58.03711 -49.1083867,68.75195 -11.603512,10.71582 -25.890618,19.64356 -31.248039,37.5 -5.356444,17.85449 -7.145506,28.5625 4.46289,35.71094 0,0 -6.246093,15.18066 -20.533198,-4.46289 -14.288082,-19.64551 -2.679687,-42.85645 0,-56.25 2.677733,-13.3916 9.819333,-53.56641 5.355467,-63.39258 -4.460936,-9.82324 -25.000969,-16.07519 -30.358389,-36.60742 -5.35742,-20.5332 4.01855,-60.49219 29.463858,-54.46191 z"
         style="fill:#5e5e5e;fill-opacity:1;stroke-width:1.36719" />
    </g>
    <path
       d="m 70.002166,124.58141 c 0,1.16938 -1.068238,2.91732 -3.233998,5.25812 l -5.399739,5.83616 2.256214,19.69502 0.01741,0.18538 c -0.01231,0.28969 -0.09873,0.52921 -0.259373,0.71792 l -1.726901,2.02862 c -0.163159,0.19167 -0.363438,0.2876 -0.600347,0.2876 -0.354551,0 -0.586854,-0.19097 -0.697137,-0.57119 l -5.000805,-15.84655 -6.060238,6.55003 c 0.376622,4.31349 0.556485,6.72047 0.519617,6.99409 -0.037,0.27463 -0.135888,0.50162 -0.296703,0.6804 l -1.727996,1.92099 c -0.163197,0.18143 -0.351137,0.27223 -0.56339,0.27223 -0.272359,0 -0.459287,-0.16077 -0.560823,-0.48099 l -2.063925,-7.83983 -4.870154,-3.72262 c -0.188338,-0.13613 -0.248525,-0.35891 -0.181341,-0.66774 0.04931,-0.22669 0.14752,-0.41555 0.294613,-0.56701 l 1.563875,-1.62885 c 0.145187,-0.14948 0.307774,-0.22985 0.488082,-0.24125 0.180579,-0.0114 1.714321,0.42777 4.693228,1.34599 l 5.873855,-6.19327 -9.944228,-4.92117 c -0.190961,-0.0859 -0.255421,-0.27013 -0.194082,-0.5521 0.04074,-0.18727 0.127288,-0.34641 0.259631,-0.47774 l 1.40343,-1.39252 c 0.130804,-0.12978 0.278963,-0.20406 0.444745,-0.22293 0.0474,-0.005 0.08164,-0.003 0.102717,0.007 l 13.765339,1.40399 5.253751,-5.53943 c 2.109813,-2.22455 3.741955,-3.40062 4.931816,-3.55819 0.440343,-0.0583 0.801845,0.0267 1.084825,0.25647 0.284877,0.23127 0.428033,0.55855 0.428033,0.98294 z"
       id="path6"
       inkscape:connector-curvature="0"
       style="fill:#ffffff;fill-opacity:1;stroke:#c7c7c7;stroke-width:0.264583;stroke-opacity:1"
       inkscape:path-effect="#path-effect1066"
       inkscape:original-d="m 70.002166,124.99402 q 0,2.2076 -3.542601,5.98843 l -5.706205,6.08994 3.399949,18.92956 0.02377,0.1523 q 0,0.35525 -0.213981,0.58362 l -1.521654,1.62398 q -0.213983,0.22838 -0.546846,0.22838 -0.499293,0 -0.6895,-0.45674 l -6.514583,-14.59048 -5.825081,6.2168 q 1.616756,6.03919 1.616756,6.39444 0,0.35525 -0.213983,0.58362 l -1.521652,1.62398 q -0.213984,0.22838 -0.546845,0.22838 -0.427966,0 -0.665726,-0.40599 l -3.685254,-7.10494 -6.657237,-3.93309 q -0.404189,-0.22836 -0.404189,-0.71048 0,-0.35524 0.21398,-0.58362 l 1.521656,-1.64936 q 0.213982,-0.22837 0.546844,-0.22837 0.332861,0 5.991512,1.72548 l 5.825084,-6.21681 -13.671114,-6.95269 q -0.427962,-0.20298 -0.427962,-0.73587 0,-0.35524 0.21398,-0.58363 l 1.521656,-1.62397 q 0.213982,-0.22837 0.546844,-0.22837 0.09509,0 0.14266,0.0253 l 17.736783,3.62858 5.706204,-6.08992 q 3.5426,-3.78085 5.611099,-3.78085 0.760829,0 1.248233,0.52019 0.487405,0.52019 0.487405,1.33217 z" />
    <path
       d="m 132.72097,125.24957 c 1.15916,0.16485 2.65371,1.54541 4.47403,4.11995 l 4.31206,6.09867 13.68359,-1.60353 0.10499,-0.009 c 0.16134,0.02 0.29035,0.10199 0.38711,0.2459 l 1.02815,1.52925 c 0.096,0.14282 0.13879,0.31581 0.12834,0.51905 -0.0157,0.30487 -0.12927,0.5036 -0.34096,0.59626 l -10.53846,5.01971 4.15822,5.8811 c 2.86738,-0.78963 4.36172,-1.17224 4.52397,-1.15916 0.16206,0.0131 0.29164,0.0897 0.38883,0.22974 l 1.03273,1.4883 c 0.0964,0.13899 0.1394,0.31052 0.1289,0.51465 -0.0135,0.26248 -0.11573,0.46006 -0.30688,0.59285 l -5.0851,3.10302 -3.12288,6.13981 c -0.12279,0.25142 -0.29971,0.37288 -0.53094,0.36423 -0.17062,-0.006 -0.30732,-0.0795 -0.41001,-0.21931 l -1.11815,-1.49849 c -0.10352,-0.14097 -0.14966,-0.31746 -0.13838,-0.52938 0.0113,-0.2119 0.53065,-2.09674 1.55287,-5.63652 l -4.24517,-5.89502 -5.97377,12.97076 c -0.11962,0.27637 -0.31649,0.40952 -0.59089,0.39925 -0.1832,-0.007 -0.32999,-0.0828 -0.44026,-0.22785 L 134.60187,156.73 c -0.11118,-0.14626 -0.16073,-0.32924 -0.14861,-0.54884 0.004,-0.0628 0.0128,-0.10953 0.0276,-0.14028 l 3.75977,-17.21365 -4.40485,-6.11678 c -1.85991,-2.58273 -2.75964,-4.57189 -2.68271,-5.94404 0.0283,-0.50454 0.18981,-0.89903 0.48419,-1.18314 0.29383,-0.28359 0.65522,-0.39465 1.08372,-0.33371 z"
       id="path6-6"
       inkscape:connector-curvature="0"
       style="fill:#ffffff;fill-opacity:1;stroke:#c7c7c7;stroke-width:0.264583;stroke-opacity:1"
       inkscape:path-effect="#path-effect1022"
       inkscape:original-d="m 133.12302,125.16388 q 2.20223,0.15385 5.72697,3.95134 l 5.67744,6.11676 19.12049,-2.07239 0.15359,-0.0131 q 0.35438,0.0248 0.56728,0.25415 l 1.51398,1.63113 q 0.21292,0.22938 0.18972,0.56144 -0.0348,0.49807 -0.50369,0.65599 l -15.00903,5.48186 5.79571,6.24419 q 6.13718,-1.19193 6.49157,-1.16717 0.35438,0.0248 0.56728,0.25415 l 1.51398,1.63113 q 0.21291,0.22938 0.18972,0.56143 -0.0298,0.42693 -0.4514,0.63581 l -7.34451,3.18112 -4.3875,6.36693 q -0.25598,0.38729 -0.73692,0.35369 -0.35438,-0.0248 -0.56729,-0.25413 l -1.5393,-1.63291 q -0.2129,-0.22938 -0.1897,-0.56143 0.0232,-0.33205 2.13886,-5.85668 l -5.79572,-6.24421 -7.88858,13.15331 q -0.23232,0.41278 -0.76391,0.37564 -0.35438,-0.0248 -0.5673,-0.25414 l -1.51397,-1.63114 q -0.2129,-0.22938 -0.1897,-0.56143 0.007,-0.0949 0.0352,-0.14055 l 4.85592,-17.44076 -5.67742,-6.11677 q -3.52476,-3.79749 -3.3806,-5.86096 0.053,-0.75898 0.60592,-1.20894 0.5529,-0.44996 1.3629,-0.39337 z" />
    <path
       d="m 98.223622,118.01182 c -0.955853,-0.62521 -1.375264,-1.88512 -1.260335,-3.78163 l 0.277843,-4.58498 -14.459787,-6.50848 -0.111161,-0.0524 c -0.146617,-0.0948 -0.216589,-0.19825 -0.209968,-0.31034 l 0.07075,-1.19589 c 0.0066,-0.11214 0.08842,-0.20822 0.24543,-0.28828 0.235658,-0.12015 0.492935,-0.14246 0.771884,-0.0668 l 13.988298,3.54631 0.284146,-4.68892 c -3.397265,-1.232399 -5.158146,-1.89131 -5.309501,-1.986459 -0.151259,-0.09511 -0.223447,-0.199608 -0.216616,-0.313517 l 0.07299,-1.215247 c 0.0068,-0.113946 0.09122,-0.2122 0.253195,-0.294792 0.208372,-0.106257 0.457149,-0.134812 0.746425,-0.08558 l 7.332151,1.487012 7.65268,-0.911224 c 0.3089,-0.0402 0.57149,0.0057 0.78765,0.137715 0.15934,0.09735 0.23545,0.204538 0.22826,0.321509 l -0.0599,1.258122 c -0.007,0.116955 -0.0961,0.217502 -0.26666,0.30161 -0.17045,0.08406 -2.08505,0.601516 -5.71327,1.544439 l -0.28906,4.72905 15.25304,-2.19508 c 0.31922,-0.0511 0.60202,-0.001 0.84831,0.14902 0.16426,0.10036 0.24272,0.20991 0.23531,0.32861 l -0.0793,1.26603 c -0.007,0.11867 -0.0991,0.21991 -0.27488,0.30368 -0.0504,0.0238 -0.0939,0.0382 -0.13051,0.0431 l -16.15246,5.02229 -0.28265,4.62414 c -0.11691,1.9127 -0.69375,3.11216 -1.72808,3.59773 -0.3796,0.17821 -0.804064,0.25018 -1.273215,0.21611 -0.468458,-0.034 -0.878721,-0.16633 -1.231012,-0.39675 z"
       id="path6-6-6"
       inkscape:connector-curvature="0"
       style="fill:#ffffff;fill-opacity:1;stroke:#c7c7c7;stroke-width:0.264583;stroke-opacity:1"
       inkscape:path-effect="#path-effect1020"
       inkscape:original-d="m 99.404992,126.65909 q -1.454069,-1.64919 -1.278777,-6.79038 l 0.28234,-8.28109 -15.026454,-11.918039 -0.118204,-0.09819 q -0.233957,-0.26542 -0.223386,-0.575933 l 0.07529,-2.208289 q 0.01058,-0.310553 0.261041,-0.528235 0.375682,-0.326511 0.819648,-0.109683 l 14.512028,6.639679 0.288227,-8.45362 q -5.194302,-3.454333 -5.428294,-3.719721 -0.233957,-0.265418 -0.223387,-0.57594 l 0.07529,-2.208283 q 0.01058,-0.310547 0.261034,-0.528226 0.322002,-0.279892 0.768327,-0.132055 l 7.452685,2.897803 7.59975,-1.415273 q 0.45454,-0.09373 0.77209,0.26645 0.23396,0.265418 0.22341,0.575931 l -0.0586,2.227253 q -0.0106,0.310542 -0.26105,0.528214 -0.25046,0.217672 -5.64474,2.629128 l -0.28824,8.453639 14.86614,-3.746221 q 0.45572,-0.128226 0.80671,0.269866 0.23396,0.265415 0.22341,0.575955 l -0.0753,2.20828 q -0.0106,0.31054 -0.26105,0.52821 -0.0718,0.0619 -0.12402,0.0744 l -15.73584,8.88825 -0.28236,8.28109 q -0.17529,5.1412 -1.73171,6.49391 -0.57246,0.49755 -1.28184,0.42767 -0.709365,-0.0699 -1.244187,-0.67647 z" />
  </g>
</svg>
